<svg xmlns="http://www.w3.org/2000/svg" width="27.577" height="27.57" viewBox="0 0 27.577 27.57">
  <path id="Icon_awesome-instagram" data-name="Icon awesome-instagram" d="M13.786,8.954a7.069,7.069,0,1,0,7.069,7.069A7.058,7.058,0,0,0,13.786,8.954Zm0,11.664a4.6,4.6,0,1,1,4.6-4.6,4.6,4.6,0,0,1-4.6,4.6ZM22.793,8.665a1.649,1.649,0,1,1-1.649-1.649A1.645,1.645,0,0,1,22.793,8.665Zm4.682,1.673a8.159,8.159,0,0,0-2.227-5.777,8.213,8.213,0,0,0-5.777-2.227c-2.276-.129-9.1-.129-11.375,0A8.2,8.2,0,0,0,2.319,4.555,8.186,8.186,0,0,0,.092,10.332c-.129,2.276-.129,9.1,0,11.375a8.159,8.159,0,0,0,2.227,5.777A8.223,8.223,0,0,0,8.1,29.711c2.276.129,9.1.129,11.375,0a8.159,8.159,0,0,0,5.777-2.227,8.213,8.213,0,0,0,2.227-5.777c.129-2.276.129-9.093,0-11.369ZM24.534,24.15a4.653,4.653,0,0,1-2.621,2.621c-1.815.72-6.121.554-8.127.554s-6.318.16-8.127-.554A4.653,4.653,0,0,1,3.038,24.15c-.72-1.815-.554-6.121-.554-8.127S2.325,9.7,3.038,7.9A4.653,4.653,0,0,1,5.659,5.275c1.815-.72,6.121-.554,8.127-.554s6.318-.16,8.127.554A4.653,4.653,0,0,1,24.534,7.9c.72,1.815.554,6.121.554,8.127S25.254,22.341,24.534,24.15Z" transform="translate(0.005 -2.238)" fill="#fff"/>
</svg>
