<svg xmlns="http://www.w3.org/2000/svg" width="27.922" height="27.921" viewBox="0 0 27.922 27.921">
  <path id="Icon_awesome-linkedin-in" data-name="Icon awesome-linkedin-in" d="M6.25,27.922H.461V9.28H6.25ZM3.352,6.737A3.368,3.368,0,1,1,6.7,3.353,3.381,3.381,0,0,1,3.352,6.737ZM27.916,27.922H22.139V18.847c0-2.163-.044-4.936-3.01-4.936-3.01,0-3.471,2.35-3.471,4.78v9.23H9.876V9.28h5.552v2.543h.081a6.083,6.083,0,0,1,5.477-3.01c5.859,0,6.936,3.858,6.936,8.869v10.24Z" transform="translate(0 -0.001)" fill="#fff"/>
</svg>
