<svg xmlns="http://www.w3.org/2000/svg" width="28.34" height="28.34" viewBox="0 0 28.34 28.34">
  <path id="Icon_awesome-pinterest" data-name="Icon awesome-pinterest" d="M28.34,14.732A14.172,14.172,0,0,1,9.976,28.268a15.928,15.928,0,0,0,1.76-3.714c.171-.663.88-3.371.88-3.371a3.8,3.8,0,0,0,3.245,1.628c4.274,0,7.354-3.931,7.354-8.816,0-4.68-3.822-8.182-8.736-8.182-6.114,0-9.365,4.1-9.365,8.576,0,2.08,1.108,4.668,2.874,5.491.269.126.411.069.474-.189.046-.194.286-1.16.394-1.606a.424.424,0,0,0-.1-.406,5.58,5.58,0,0,1-1.046-3.234,6.132,6.132,0,0,1,6.4-6.148,5.594,5.594,0,0,1,5.919,5.765c0,3.834-1.937,6.491-4.457,6.491a2.055,2.055,0,0,1-2.1-2.56c.4-1.686,1.171-3.5,1.171-4.719a1.779,1.779,0,0,0-1.794-1.994c-1.423,0-2.565,1.468-2.565,3.44a5.106,5.106,0,0,0,.423,2.1s-1.4,5.931-1.657,7.039A13.716,13.716,0,0,0,9,27.931a14.171,14.171,0,1,1,19.335-13.2Z" transform="translate(0 -0.563)" fill="#fff"/>
</svg>
